<?xml version="1.0" encoding="utf-8"?>
<svg viewBox="0 0 24 24" width="24px" height="24px" xmlns="http://www.w3.org/2000/svg">
  <path d="M 13 17 L 13 20.955 C 17.291 20.459 21 16.872 21 12 L 18 12 C 18 13.777 17.228 15.374 16 16.472 L 16 3.937 C 10.092 0.983 3 5.263 3 12 L 6 12 C 6 10.223 6.772 8.626 8 7.528 L 8 20.062 C 8.983 20.554 9.999 20.846 11 20.959 L 11 6.083 C 11.325 6.028 11.659 6 12 6 C 12.341 6 12.675 6.028 13 6.083 L 13 17 Z" style="fill: rgb(216, 216, 216); stroke: rgb(0, 0, 0); stroke-width: 0px;"/>
</svg>