<?xml version="1.0" standalone="no"?>
<!DOCTYPE svg PUBLIC "-//W3C//DTD SVG 20010904//EN"
 "http://www.w3.org/TR/2001/REC-SVG-20010904/DTD/svg10.dtd">
<svg version="1.0" xmlns="http://www.w3.org/2000/svg"
 width="700.000000pt" height="700.000000pt" viewBox="0 0 700.000000 700.000000"
 preserveAspectRatio="xMidYMid meet">
<metadata>
Created by potrace 1.14, written by Peter Selinger 2001-2017
</metadata>
<g transform="translate(0.000000,700.000000) scale(0.100000,-0.100000)"
fill="#000000" stroke="none">
<path d="M3219 6996 c-2 -2 -35 -6 -74 -10 -64 -5 -120 -13 -230 -32 -22 -3
-47 -7 -55 -8 -81 -13 -283 -64 -420 -108 -212 -68 -531 -211 -704 -316 -37
-23 -70 -42 -72 -42 -4 0 -217 -142 -224 -150 -3 -3 -43 -34 -90 -70 -207
-157 -427 -375 -597 -592 -342 -434 -593 -981 -689 -1503 -9 -49 -17 -97 -19
-105 -2 -9 -6 -43 -10 -75 -4 -33 -9 -69 -11 -80 -12 -62 -19 -215 -19 -400 1
-256 11 -408 41 -579 22 -131 41 -224 64 -306 7 -25 14 -54 16 -65 11 -59 113
-349 155 -441 136 -299 241 -480 407 -704 118 -159 326 -386 468 -510 28 -25
66 -58 85 -75 49 -43 269 -207 315 -235 21 -13 41 -26 44 -29 3 -4 17 -13 32
-21 15 -8 64 -37 110 -64 229 -136 605 -296 825 -351 107 -27 275 -66 303 -71
19 -3 46 -7 60 -10 14 -2 41 -7 60 -9 19 -3 46 -7 60 -10 109 -20 655 -29 804
-12 332 37 601 103 907 222 512 200 1001 538 1344 929 33 38 67 76 75 85 13
14 67 82 92 116 4 6 18 24 31 40 80 102 212 311 296 470 182 344 322 785 371
1174 7 52 14 106 16 120 9 49 11 526 4 606 -17 182 -22 221 -25 235 -3 8 -7
34 -10 57 -19 160 -127 564 -180 680 -8 17 -15 34 -15 38 0 29 -160 357 -238
490 -273 462 -695 899 -1131 1170 -357 222 -693 366 -1072 459 -79 19 -157 37
-174 40 -33 5 -117 19 -125 21 -3 1 -34 5 -70 9 -36 4 -78 10 -95 13 -35 6
-630 15 -636 9z m561 -881 c270 -33 571 -116 791 -218 l95 -45 0 -1826 c-1
-1004 2 -1826 5 -1826 21 0 245 260 294 342 188 311 276 593 284 916 l1 42
438 0 438 0 -2 -72 c-3 -88 -13 -237 -19 -258 -2 -8 -7 -40 -10 -70 -14 -117
-105 -473 -136 -530 -5 -8 -27 -60 -49 -115 -159 -391 -476 -789 -845 -1061
-167 -123 -334 -220 -505 -294 -52 -23 -104 -45 -115 -50 -83 -37 -370 -119
-479 -136 -21 -3 -48 -7 -60 -10 -11 -2 -42 -7 -68 -10 l-46 -6 -1 548 c0 302
0 1279 0 2171 l-1 1621 -72 10 c-81 10 -374 8 -455 -3 l-53 -8 0 -2168 c0
-2059 -1 -2169 -17 -2169 -10 0 -67 9 -128 19 -219 38 -423 100 -624 190
l-106 47 -1 1822 c0 1002 -3 1824 -6 1827 -7 7 -154 -148 -212 -225 -61 -79
-156 -228 -156 -242 0 -6 -6 -19 -13 -27 -8 -9 -32 -59 -54 -111 -90 -210
-137 -422 -142 -643 l-1 -47 -437 2 -438 3 1 50 c1 71 14 267 18 274 2 3 7 31
10 62 4 31 9 67 11 80 3 13 8 38 11 54 12 71 58 238 91 335 81 237 190 448
344 666 69 96 70 98 182 224 382 433 935 739 1517 840 36 6 76 13 90 16 14 2
61 7 105 10 44 4 82 8 84 10 6 5 382 -4 441 -11z"/>
</g>
</svg>
